<svg xmlns="http://www.w3.org/2000/svg" viewBox="0 0 3840 3840" width="3840" height="3840"><defs><linearGradient id="grd1" gradientUnits="userSpaceOnUse"  x1="3916.8" y1="63.542" x2="3916.8" y2="3300.63"><stop offset="0" stop-color="#5b8a97"  /><stop offset="0.511" stop-color="#dcdbc5"  /><stop offset="1" stop-color="#efead6"  /></linearGradient><radialGradient id="grd2" gradientUnits="userSpaceOnUse"  cx="-1376.112" cy="50.771" r="2599.729"><stop offset="0" stop-color="#747272"  /><stop offset="1" stop-color="#000000"  /></radialGradient><linearGradient id="grd3" gradientUnits="userSpaceOnUse"  x1="0" y1="2675.515" x2="3840" y2="2675.515"><stop offset="0" stop-color="#3a5757"  /><stop offset="0.889" stop-color="#131d1d"  /></linearGradient></defs><style>tspan { white-space:pre }.shp0 { fill: url(#grd1) } .shp1 { fill: #8eb3b3 } .shp2 { fill: #72a0a0 } .shp3 { opacity: 0.871;mix-blend-mode: screen;fill: url(#grd2) } .shp4 { fill: #4c7171 } .shp5 { opacity: 0.529;fill: #000000 } .shp6 { opacity: 0.302;fill: #1c2d2d } .shp7 { opacity: 0.502;fill: #1c2d2d } .shp8 { fill: #61868e } .shp9 { fill: #314646 } .shp10 { fill: #1c2d2d } .shp11 { fill: #131e1e } .shp12 { fill: url(#grd3) } </style><g id="Layer 1"><path id="&lt;Path&gt;" class="shp0" d="M0 -0.02L0 3364.19L3840 3364.19L3840 -0.02L0 -0.02Z" /><path id="&lt;Path&gt;" class="shp1" d="M2638.75 2155.19C2586.94 2111.25 2540 1994.25 2491.94 1961.63C2459.9 1939.87 2428.52 1912.01 2397.81 1878.05C2378.19 1858.17 2214.12 1813.4 2184.84 1773.33C2083.14 1717.38 2015.26 1674.57 1981.22 1644.91C1930.16 1600.41 1850.28 1575.67 1801.27 1565.33C1752.22 1554.97 1663.58 1537.36 1599.16 1539.48C1534.73 1541.59 1465.61 1542.16 1425.58 1528.08C1385.55 1514.02 1358.14 1518.33 1300.11 1511.69C1242.08 1505.05 1095.05 1436.34 1068.62 1418.41C1042.19 1400.45 1025.72 1433.5 1008.81 1420.37C991.89 1407.25 946.53 1381.38 921.22 1382.2C895.92 1383.03 872.25 1334.22 834.92 1326.89C797.61 1319.58 747.19 1324.66 720.87 1308.42C694.55 1292.19 519.34 1176.52 491.11 1167.19C462.89 1157.84 450.27 1139.45 429.56 1140.14C408.86 1140.81 368.06 1152.42 353.64 1142.64C339.22 1132.84 317.08 1122.17 303.97 1121.47C290.86 1120.75 268.73 1110.66 259.16 1104.7C249.58 1098.73 228.89 1086.87 225.8 1086.41C222.69 1085.94 215.11 1074.8 202.8 1074.62C190.5 1074.45 170.7 1077.39 160.36 1071.45C150 1065.53 134.19 1044.95 125.67 1044.09C117.17 1043.24 42.17 1035.44 21.38 1047.53C14.64 1051.44 7.48 1056.33 0 1061.28L0 2542.06C920.99 2497.81 1394.7 2530.69 1722.73 2395.44C1974.75 2291.56 2398.47 2297.94 2655.56 2185.5C2650.44 2170.94 2644.84 2160.31 2638.75 2155.19Z" /><path id="&lt;Path&gt;" class="shp1" d="M3792.31 1550.39C3696.91 1552.52 3594.5 1553.08 3535.22 1539C3475.94 1524.92 3435.34 1529.25 3349.4 1522.61C3263.47 1515.97 3045.69 1447.27 3006.53 1429.33C2967.38 1411.38 2943 1444.41 2917.94 1431.28C2892.87 1418.16 2825.69 1392.3 2788.22 1393.13C2750.72 1393.95 2715.69 1345.14 2660.41 1337.81C2605.13 1330.48 2530.47 1335.56 2491.47 1319.33C2452.47 1303.09 2192.97 1187.44 2151.19 1178.09C2109.38 1168.76 2090.69 1150.37 2060 1151.05C2029.34 1151.73 1968.91 1163.34 1947.56 1153.55C1926.22 1143.77 1893.4 1133.09 1873.97 1132.39C1854.58 1131.67 1821.81 1121.56 1807.63 1115.61C1793.44 1109.66 1762.8 1097.8 1758.2 1097.33C1753.61 1096.86 1742.37 1085.7 1724.16 1085.55C1705.94 1085.38 1676.61 1088.31 1661.28 1082.37C1645.95 1076.45 1622.52 1055.88 1609.92 1055.01C1597.33 1054.16 1486.23 1046.36 1455.44 1058.45C1424.64 1070.53 1387.83 1091.88 1349.52 1096.14C1311.2 1100.42 1283.28 1119.28 1256.02 1119.89C1228.76 1120.5 1202.61 1133.61 1182.16 1134.06C1161.72 1134.53 1119.05 1141.17 1081.03 1148.86C1043.01 1156.55 1004.09 1153.98 977.75 1164.84C951.39 1175.69 967.59 1178.75 943.2 1186.12C918.83 1193.52 827.55 1242.28 778.97 1259.33C730.41 1276.37 484.89 1357.08 394.02 1359.09C315.64 1360.83 94.25 1430.22 0 1451.5L0 2563.44C203.53 2584.94 482.05 2591.13 874.41 2573.88C2470.19 2503.75 3292.53 2549.88 3840 2438.69L3840 1550.76C3823.47 1550.22 3807.44 1550.06 3792.31 1550.39Z" /><path id="&lt;Path&gt;" class="shp2" d="M388.11 1958.87C367.75 1942.73 362.19 1896.58 336.27 1878.11C310.34 1859.64 314.05 1848.11 271.45 1841.19C228.87 1834.27 175.19 1769.66 149.25 1755.81C131.25 1746.19 58.75 1689.81 0 1647.77L0 2370.56C30.97 2345.75 57.47 2322.81 65.94 2309.63C88.16 2275 438.11 2088.12 447.36 2088.12C456.62 2088.12 408.48 1975 388.11 1958.87Z" /><path id="&lt;Path&gt;" class="shp2" d="M3840 1082.33C3836.16 1079.25 3832.5 1076.09 3829.13 1073.69C3820.56 1067.56 3790.84 1073.06 3787.47 1073.69C3784.09 1074.3 3778.28 1085.63 3774.31 1088.99C3770.31 1092.36 3762.34 1091.13 3757.44 1091.44C3752.53 1091.73 3749.78 1097.86 3748.56 1098.17C3747.34 1098.47 3739.38 1105.2 3735.69 1108.58C3732.03 1111.94 3723.44 1117.77 3718.22 1118.37C3713.03 1118.99 3704.44 1125.11 3698.94 1130.61C3693.4 1136.12 3676.87 1130.61 3668.6 1130.61C3660.34 1130.61 3655.75 1140.72 3644.72 1146.22C3633.69 1151.73 3566.6 1216.94 3556.47 1226.12C3546.37 1235.3 3526.16 1233.47 3511.44 1238.06C3496.75 1242.64 3488.47 1269.28 3478.37 1269.28C3468.25 1269.28 3450.78 1283.97 3444.37 1291.31C3437.94 1298.66 3430.56 1281.22 3420.47 1291.31C3410.34 1301.42 3353.38 1340.91 3330.41 1345.5C3307.4 1350.09 3296.37 1348.25 3280.75 1356.52C3265.13 1364.78 3237.56 1365.7 3211.84 1365.7C3186.09 1365.7 3151.19 1376.72 3131.88 1383.14C3112.6 1389.58 3081.34 1404.27 3062.03 1429.06C3049.18 1445.59 3023.13 1469.78 2983.91 1501.61C2973.19 1523.64 2908.84 1550.58 2901.5 1561.59C2890.06 1580.38 2878.22 1595.89 2865.97 1608.12C2847.59 1626.5 2831.66 1690.16 2812.06 1714.64C2792.44 1739.14 2796.12 1969.31 2801.03 2003.63C2805.94 2037.88 2927.25 2143.19 2952.97 2155.44C2978.69 2167.69 3016.69 2227.69 3066.94 2260.75C3117.19 2293.81 3275.25 2303.56 3326.72 2306C3368.81 2308 3689.75 2342 3840 2356.31L3840 1082.33Z" /><path id="&lt;Path&gt;" class="shp3" d="M927.05 -0.02L0 -0.02L0 846.44C703.38 807.45 1182.73 648.55 1215.98 400.5C1233.28 271.22 1127.19 133.56 927.05 -0.02Z" /><path id="&lt;Path&gt;" class="shp2" d="M3786.31 1810.17C3769.5 1806.56 3762.62 1798.76 3756.53 1797.56C3750.41 1796.36 3706.09 1777.16 3699.97 1776.55C3693.88 1775.95 3652.6 1758.55 3641.91 1758.55C3631.22 1758.55 3591.47 1740.53 3589.19 1738.73C3586.91 1736.92 3567.78 1730.33 3560.16 1732.72C3552.5 1735.13 3536.47 1727.33 3534.19 1724.33C3531.88 1721.31 3516.6 1714.72 3508.19 1715.92C3499.78 1717.13 3493.69 1712.92 3480.69 1710.52C3467.69 1708.11 3459.28 1696.7 3456.22 1691.91C3453.19 1687.11 3419.56 1685.91 3405.81 1684.7C3392.06 1683.5 3369.13 1651.09 3350.78 1649.89C3332.47 1648.69 3234.66 1603.06 3204.09 1603.06C3173.53 1603.06 3088.72 1563.44 3071.91 1555.03C3055.09 1546.62 3023 1522.02 3014.6 1518.42C3006.19 1514.81 3011.53 1513.01 3002.37 1507.61C2993.22 1502.2 2980.22 1504.02 2967.22 1500.41C2954.25 1496.8 2939.72 1493.8 2932.84 1493.8C2925.97 1493.8 2916.78 1487.2 2907.63 1487.2C2898.47 1487.2 2888.53 1477.59 2875.53 1475.8C2862.56 1474 2849.56 1463.19 2838.87 1457.19C2828.16 1451.19 2791.09 1456.58 2786.91 1457.19C2782.69 1457.78 2775.44 1468.89 2770.47 1472.19C2765.5 1475.5 2755.59 1474.3 2749.47 1474.6C2743.34 1474.89 2739.91 1480.89 2738.37 1481.2C2736.84 1481.5 2726.94 1488.09 2722.34 1491.4C2717.75 1494.7 2707.06 1500.41 2700.56 1501C2699.66 1501.09 2698.62 1501.31 2697.56 1501.59C2697.19 1501.45 2696.81 1501.31 2696.44 1501.17C2676.97 1493.06 2663.22 1494.87 2634.56 1490.36C2605.91 1485.86 2534.84 1447.14 2522.25 1437.24C2509.63 1427.33 2500.47 1444.44 2492.44 1437.24C2484.41 1430.03 2462.66 1415.63 2450.03 1415.63C2437.44 1415.63 2427.13 1389.52 2408.78 1385.01C2390.44 1380.52 2365.22 1382.31 2352.62 1373.31C2340 1364.3 2256.34 1300.37 2242.6 1294.97C2228.84 1289.56 2223.09 1279.66 2212.78 1279.66C2202.47 1279.66 2181.84 1285.06 2174.97 1279.66C2168.09 1274.25 2157.4 1268.25 2150.91 1267.66C2144.41 1267.05 2133.72 1261.34 2129.13 1258.05C2124.53 1254.75 2114.6 1248.14 2113.09 1247.84C2111.56 1247.55 2108.12 1241.53 2102 1241.24C2095.88 1240.94 2085.94 1242.14 2081 1238.83C2076.03 1235.53 2068.75 1224.42 2064.56 1223.83C2060.34 1223.24 2023.31 1217.83 2012.6 1223.83C2001.91 1229.83 1988.91 1240.64 1975.94 1242.44C1962.94 1244.23 1953 1253.84 1943.84 1253.84C1934.66 1253.84 1925.5 1260.45 1918.62 1260.45C1911.75 1260.45 1897.22 1263.45 1884.25 1267.05C1871.25 1270.66 1858.27 1268.86 1849.09 1274.25C1839.92 1279.66 1845.27 1281.45 1836.86 1285.06C1828.47 1288.66 1796.37 1313.28 1779.56 1321.69C1762.75 1330.08 1677.94 1369.7 1647.38 1369.7C1616.81 1369.7 1519 1415.33 1500.67 1416.53C1482.33 1417.73 1459.4 1450.14 1445.66 1451.34C1431.91 1452.55 1398.28 1453.75 1395.24 1458.55C1392.17 1463.36 1383.77 1474.76 1370.78 1477.16C1357.78 1479.56 1351.67 1483.77 1343.27 1482.56C1334.86 1481.36 1319.58 1487.97 1317.3 1490.97C1315 1493.97 1298.95 1501.78 1291.31 1499.38C1283.67 1496.97 1264.58 1503.58 1262.28 1505.38C1259.98 1507.17 1220.25 1525.19 1209.56 1525.19C1198.86 1525.19 1157.59 1542.6 1151.48 1543.2C1145.38 1543.8 1101.06 1563 1094.94 1564.2C1088.83 1565.4 1081.95 1573.2 1065.14 1576.81C1030.25 1575.61 1005.55 1574.71 991.03 1574.11C969.25 1573.2 930.28 1567.81 913.09 1566.91C895.91 1566 846.62 1583.11 837.45 1585.81C828.28 1588.52 737.73 1615.53 723.98 1619.14C710.23 1622.73 679.28 1631.73 667.83 1632.64C656.36 1633.55 607.08 1649.75 584.16 1651.55C561.24 1653.36 503.94 1665.06 490.17 1669.56C440.5 1684.97 407.27 1695.88 390.47 1702.28C365.25 1711.88 195.63 1796.53 126.86 1816.34C76.87 1830.73 28.2 1844.17 0 1853.89L0 2659.5C88.31 2651.75 204.61 2638.69 234.6 2646.56C275.84 2657.38 365.25 2620.75 438.61 2620.75C496.52 2620.75 1331.78 2539.94 1719.89 2504.12C1731.34 2510.94 1740.64 2515.88 1746.23 2517.94C1778.33 2529.94 1825.69 2588.75 1888.34 2621.19C1951 2653.63 2148.12 2663.19 2212.31 2665.63C2276.5 2668 2860.25 2717.25 2939.72 2720.87C2985.63 2722.94 3445.53 2767.06 3840 2804L3840 1808.25C3824.02 1808.84 3806.13 1809.48 3786.31 1810.17Z" /><path id="&lt;Path&gt;" class="shp4" d="M3804.34 1472.36C3772.53 1476.91 3743.47 1476.64 3711.31 1478.86C3671.09 1481.63 3640.78 1526.87 3608.81 1546.23C3566.69 1571.72 3523.56 1561.06 3476.84 1551.39C3454.19 1546.7 3419.38 1552.47 3395.81 1554.16C3361.78 1556.61 3328.72 1559.64 3294.66 1561.16C3263 1562.56 3252.19 1564.02 3226.34 1568.19C3203.75 1571.83 3183.06 1568.84 3159.59 1569.77C3134.72 1570.73 3102.41 1573.89 3081.5 1586.78C3051.44 1605.3 3037.06 1633.52 3001.4 1645.8C2940.94 1666.6 2881.69 1705.31 2830.41 1739.72C2739.09 1800.95 2618.09 1823.56 2508.62 1851.98C2412.53 1876.92 2306.81 1895.39 2211.88 1926.42C2163.47 1942.23 2168.19 1941.7 2141.09 1963.5C2112.34 1986.56 2077.53 2002.19 2042.34 2016.5C2015.19 2027.56 1990.53 2038.12 1964.91 2051.19C1911.28 2078.5 1858.92 2094.5 1800.61 2115.19C1689.59 2154.56 1581.73 2198.56 1469.42 2234.37C1438.09 2244.37 1411.16 2263.75 1381.59 2277.25C1279.24 2324 1179.13 2374.31 1077.4 2421.44C1039.72 2438.94 1005.4 2463.38 969 2482.81C888.06 2525.94 795.13 2554.31 707.55 2586C636.05 2611.81 574.37 2645.69 499.58 2661.88C334.44 2697.69 160.97 2728.94 0 2779.75L0 3281.81C4.91 3283.25 9.81 3284.69 14.7 3286.12C155.22 3331.81 286.19 3398.87 415.8 3463.63C475.64 3493.5 535.56 3523.19 594.61 3554.25C646.53 3581.5 699.2 3601.94 754.12 3618.31L3840 3618.31L3840 1468.92C3827.88 1469.63 3815.97 1470.7 3804.34 1472.36Z" /><path id="&lt;Path&gt;" class="shp4" d="M3771.84 3074.62C3737.78 3056.31 3708.16 3037.06 3671 3023.5C3636.28 3010.81 3613.59 3014.19 3577 3010.19C3547.4 3006.94 3519.97 2997.13 3494.6 2983.75C3477.91 2974.94 3459.25 2962.87 3440.03 2958.31C3416.31 2952.69 3391.56 2960.31 3367.84 2957.13C3296.16 2947.5 3285.38 2871.81 3239.31 2834.19C3220.19 2818.56 3199.47 2806.37 3176.31 2796.06C3146.06 2782.56 3126.94 2784.31 3092.6 2784.25C3040.91 2784.12 2991.72 2775.38 2946.47 2752.69C2890.41 2724.56 2892.78 2688.44 2868.25 2644.19C2848.75 2608.94 2807.75 2595.75 2765.22 2604.19C2744.28 2608.31 2730.53 2621.88 2712.28 2628C2698.5 2632.62 2679.72 2629.63 2665.09 2629.56C2651.63 2629.56 2636.28 2631.25 2622.97 2629.94C2608.28 2628.44 2596.12 2622.31 2581.69 2620.25C2557.19 2616.75 2526.72 2614.25 2501.94 2612.25C2473.72 2610.06 2473.38 2612.25 2457.28 2593.38C2444.87 2578.87 2426.03 2559.56 2409.28 2549C2397.44 2541.5 2398.53 2544 2386.44 2541C2364.28 2535.44 2391 2562.06 2354.19 2535.69C2342.84 2527.56 2336.97 2509.5 2324.44 2503C2317.94 2499.63 2260.31 2500.5 2270 2501.44C2210.94 2495.94 2142.41 2476.94 2097.63 2442.37C2058.47 2412.12 2040.53 2369.69 2022.22 2328.69C2011.91 2305.56 2001.53 2251.19 1968.97 2246.94C1941.31 2243.31 1919.88 2247.88 1891.16 2238.37C1833.94 2219.38 1797.03 2176.25 1754.73 2140.06C1736.78 2124.75 1719.7 2109.63 1703.09 2093.13C1664.55 2054.87 1618.33 2027.13 1575.4 1993.38C1550.22 1973.5 1539.83 1950.02 1508.53 1938.83C1496.92 1934.67 1492.17 1936.7 1479.28 1930.64C1470.41 1926.45 1464.03 1918.8 1453.88 1915.98C1419.09 1906.33 1400.91 1940.02 1363.84 1929.24C1347.67 1924.52 1324.72 1905.98 1313.58 1894.33C1290.27 1869.94 1295.42 1866.19 1252.58 1866.62C1189.13 1867.28 1117.5 1859.88 1054.78 1868.81C1022.99 1873.36 993.91 1873.09 961.75 1875.31C921.53 1878.08 891.2 1923.33 859.25 1942.67C817.13 1968.19 774 1957.5 727.27 1947.86C704.61 1943.14 669.8 1948.92 646.27 1950.61C612.22 1953.06 579.14 1956.06 545.08 1957.63C513.44 1959 502.62 1960.5 476.78 1964.62C454.19 1968.25 433.5 1965.31 410.02 1966.19C385.14 1967.19 352.83 1970.37 331.92 1983.25C301.88 2001.75 287.5 2029.94 251.83 2042.25C191.36 2063.06 132.12 2101.75 80.84 2136.19C55.84 2152.94 28.6 2166.75 0 2178.62L0 3618.31L3840 3618.31L3840 3090.94C3817.03 3090.44 3799.66 3089.56 3771.84 3074.62Z" /><path id="&lt;Path&gt;" class="shp5" d="M1908.89 1433.98C1903.42 1442.68 1898.01 1445.31 1892.51 1452C1886.3 1459.56 1886.4 1468.27 1885.78 1474.09C1883.75 1474.37 1882.02 1475.39 1881.1 1477.07C1880.19 1478.7 1880.23 1480.64 1881.04 1482.45C1876.49 1486.17 1868.67 1490.81 1865.52 1500.43C1862.85 1508.65 1863.54 1514.59 1859.15 1523.88C1858.81 1524.58 1858.5 1525.22 1858.19 1525.8C1858.63 1525.3 1859.1 1524.74 1859.6 1524.12C1861.85 1521.17 1863.68 1518.33 1865.41 1514.71C1867.25 1510.92 1868.54 1507.02 1870.82 1503.3C1873.51 1498.96 1876.47 1496.59 1878.97 1494.85C1882.98 1492.05 1886.7 1490.34 1890.47 1488.26C1890.85 1488.25 1891.21 1488.21 1891.56 1488.15C1891.62 1488.3 1891.7 1488.43 1891.79 1488.54C1892.92 1490.22 1892.88 1492.83 1893.14 1495.02C1893.69 1496.27 1895.68 1494.73 1896.47 1494.19C1900.45 1490.42 1902.86 1486.01 1903.89 1480.65C1903.93 1479.69 1904.16 1477.2 1902.8 1477.42C1900.81 1478.38 1898.63 1479.84 1896.58 1479.79C1896.45 1479.78 1896.3 1479.79 1896.15 1479.83C1896.02 1479.54 1895.87 1479.25 1895.72 1478.97C1895.42 1474.85 1894.89 1470.95 1895.08 1466.25C1895.21 1463.24 1895.59 1459.47 1897.82 1454.87C1899.74 1450.96 1902.31 1447.76 1904.53 1444.18C1906.66 1440.76 1908.08 1437.69 1909.32 1434.23C1909.59 1433.48 1909.81 1432.78 1910 1432.13C1909.68 1432.7 1909.31 1433.32 1908.89 1433.98Z" /><path id="&lt;Path&gt;" class="shp5" d="M2306.89 1398.26C2301.32 1407.09 2295.84 1409.76 2290.25 1416.55C2283.96 1424.22 2284.03 1433.06 2283.42 1438.97C2281.34 1439.25 2279.6 1440.29 2278.66 1441.99C2277.74 1443.65 2277.81 1445.62 2278.61 1447.46C2274.01 1451.23 2266.04 1455.94 2262.85 1465.7C2260.14 1474.05 2260.84 1480.07 2256.39 1489.51C2256.05 1490.22 2255.73 1490.87 2255.4 1491.45C2255.86 1490.94 2256.33 1490.38 2256.82 1489.75C2259.12 1486.76 2260.97 1483.87 2262.74 1480.2C2264.6 1476.36 2265.93 1472.39 2268.24 1468.63C2270.95 1464.21 2273.96 1461.82 2276.5 1460.05C2280.58 1457.21 2284.33 1455.47 2288.2 1453.34C2288.57 1453.33 2288.94 1453.3 2289.29 1453.25C2289.35 1453.39 2289.42 1453.52 2289.51 1453.64C2290.67 1455.34 2290.62 1457.99 2290.9 1460.22C2291.45 1461.49 2293.46 1459.93 2294.27 1459.37C2298.31 1455.54 2300.75 1451.08 2301.8 1445.63C2301.84 1444.65 2302.08 1442.12 2300.71 1442.35C2298.68 1443.32 2296.45 1444.8 2294.38 1444.76C2294.25 1444.75 2294.09 1444.76 2293.94 1444.79C2293.81 1444.49 2293.66 1444.21 2293.5 1443.92C2293.2 1439.74 2292.67 1435.78 2292.87 1431.01C2292.98 1427.94 2293.37 1424.12 2295.62 1419.46C2297.59 1415.5 2300.21 1412.24 2302.45 1408.61C2304.59 1405.14 2306.03 1402.03 2307.32 1398.5C2307.58 1397.74 2307.81 1397.03 2308 1396.39C2307.68 1396.96 2307.31 1397.59 2306.89 1398.26Z" /><path id="&lt;Path&gt;" class="shp6" d="M598.09 1549.08C590.09 1543.98 587.56 1539.34 581.38 1534.34C574.38 1528.72 566.56 1528.22 561.32 1527.35C561.01 1525.64 560.04 1524.14 558.5 1523.27C557.01 1522.42 555.26 1522.34 553.67 1522.88C550.18 1518.88 545.76 1512.08 537.02 1508.85C529.55 1506.1 524.25 1506.32 515.76 1502.07C515.12 1501.75 514.53 1501.44 514 1501.16C514.47 1501.55 514.99 1501.97 515.56 1502.42C518.27 1504.48 520.89 1506.18 524.19 1507.85C527.66 1509.61 531.2 1510.95 534.61 1513.07C538.6 1515.57 540.82 1518.18 542.46 1520.36C545.1 1523.88 546.76 1527.06 548.76 1530.34C548.78 1530.64 548.82 1530.94 548.88 1531.25C548.76 1531.28 548.65 1531.33 548.55 1531.39C547.07 1532.23 544.72 1532.03 542.76 1532.11C541.66 1532.48 543.1 1534.22 543.62 1534.92C547.14 1538.46 551.17 1540.74 556.02 1541.94C556.89 1542.03 559.12 1542.38 558.88 1541.24C557.96 1539.53 556.57 1537.62 556.55 1535.93C556.56 1535.82 556.54 1535.69 556.51 1535.57C556.77 1535.48 557.01 1535.38 557.25 1535.26C560.96 1535.28 564.44 1535.1 568.66 1535.56C571.38 1535.86 574.77 1536.41 578.97 1538.55C582.54 1540.39 585.5 1542.74 588.79 1544.81C591.93 1546.78 594.72 1548.17 597.88 1549.43C598.57 1549.69 599.2 1549.92 599.78 1550.12C599.26 1549.81 598.69 1549.47 598.09 1549.08Z" /><path id="&lt;Path&gt; copy 2" class="shp6" d="M2602.72 1788.47C2597.71 1785.27 2596.12 1782.36 2592.24 1779.23C2587.86 1775.7 2582.96 1775.39 2579.67 1774.84C2579.47 1773.77 2578.87 1772.83 2577.9 1772.29C2576.96 1771.75 2575.87 1771.7 2574.87 1772.04C2572.68 1769.53 2569.91 1765.27 2564.44 1763.25C2559.75 1761.52 2556.42 1761.66 2551.1 1758.99C2550.7 1758.79 2550.33 1758.6 2550 1758.42C2550.3 1758.67 2550.62 1758.93 2550.98 1759.21C2552.68 1760.51 2554.32 1761.57 2556.39 1762.62C2558.56 1763.72 2560.78 1764.56 2562.92 1765.89C2565.42 1767.46 2566.81 1769.1 2567.84 1770.46C2569.5 1772.67 2570.54 1774.66 2571.79 1776.72C2571.8 1776.91 2571.83 1777.1 2571.87 1777.29C2571.79 1777.31 2571.72 1777.34 2571.66 1777.38C2570.73 1777.91 2569.26 1777.78 2568.03 1777.83C2567.34 1778.06 2568.25 1779.15 2568.57 1779.59C2570.78 1781.81 2573.3 1783.24 2576.35 1783.99C2576.89 1784.05 2578.29 1784.27 2578.14 1783.55C2577.56 1782.48 2576.69 1781.28 2576.68 1780.22C2576.68 1780.15 2576.67 1780.07 2576.65 1780C2576.81 1779.94 2576.97 1779.88 2577.12 1779.8C2579.44 1779.81 2581.62 1779.71 2584.27 1779.99C2585.97 1780.18 2588.1 1780.53 2590.73 1781.87C2592.97 1783.02 2594.83 1784.49 2596.89 1785.79C2598.86 1787.03 2600.61 1787.89 2602.59 1788.69C2603.02 1788.85 2603.42 1788.99 2603.78 1789.12C2603.45 1788.93 2603.1 1788.71 2602.72 1788.47Z" /><path id="&lt;Path&gt; copy" class="shp6" d="M1247.72 1737.55C1241.26 1741.13 1237.14 1741.14 1231.43 1743.53C1224.98 1746.23 1221.75 1751.4 1219.21 1754.66C1217.92 1754.24 1216.54 1754.35 1215.37 1755.08C1214.23 1755.79 1213.53 1756.95 1213.31 1758.24C1209.28 1759.15 1202.98 1759.65 1197.54 1764.43C1192.88 1768.53 1191.06 1772.24 1185.01 1776.48C1184.55 1776.79 1184.12 1777.08 1183.73 1777.34C1184.17 1777.17 1184.66 1776.97 1185.17 1776.74C1187.59 1775.65 1189.72 1774.48 1192.09 1772.85C1194.58 1771.13 1196.81 1769.2 1199.53 1767.65C1202.72 1765.85 1205.33 1765.3 1207.43 1764.98C1210.81 1764.48 1213.61 1764.52 1216.59 1764.37C1216.81 1764.47 1217.03 1764.55 1217.26 1764.62C1217.24 1764.72 1217.23 1764.81 1217.24 1764.91C1217.27 1766.23 1216.26 1767.77 1215.58 1769.13C1215.43 1770.02 1217.16 1769.68 1217.83 1769.58C1221.55 1768.49 1224.61 1766.58 1227.23 1763.7C1227.61 1763.14 1228.68 1761.74 1227.81 1761.48C1226.3 1761.48 1224.48 1761.72 1223.31 1761.11C1223.24 1761.06 1223.14 1761.03 1223.05 1761C1223.08 1760.79 1223.11 1760.59 1223.11 1760.38C1224.5 1757.85 1225.67 1755.4 1227.55 1752.68C1228.76 1750.93 1230.4 1748.82 1233.42 1746.74C1236 1744.97 1238.71 1743.82 1241.34 1742.33C1243.86 1740.92 1245.84 1739.52 1247.88 1737.82C1248.31 1737.45 1248.7 1737.1 1249.05 1736.78C1248.65 1737.02 1248.2 1737.28 1247.72 1737.55Z" /><path id="&lt;Path&gt;" class="shp6" d="M804.37 1033.53C794.55 1034.84 789.39 1032.83 781.09 1033.01C771.71 1033.22 765.16 1038.08 760.4 1040.9C758.99 1039.76 757.19 1039.21 755.38 1039.55C753.61 1039.88 752.18 1040.98 751.28 1042.48C745.79 1041.63 737.66 1039.19 728.53 1042.49C720.73 1045.31 716.65 1049.04 707.02 1051.36C706.29 1051.54 705.62 1051.69 705 1051.81C705.64 1051.82 706.34 1051.81 707.1 1051.78C710.65 1051.59 713.89 1051.19 717.64 1050.31C721.6 1049.38 725.32 1048.07 729.47 1047.47C734.34 1046.78 737.88 1047.38 740.66 1048.01C745.15 1049.04 748.62 1050.45 752.44 1051.73C752.67 1051.96 752.9 1052.18 753.16 1052.37C753.09 1052.48 753.03 1052.6 752.99 1052.72C752.39 1054.38 750.38 1055.79 748.88 1057.16C748.26 1058.21 750.59 1058.62 751.47 1058.83C756.67 1059.29 761.42 1058.4 766.1 1056.11C766.85 1055.6 768.86 1054.37 767.9 1053.62C766 1052.88 763.61 1052.29 762.44 1050.95C762.36 1050.86 762.27 1050.77 762.16 1050.69C762.3 1050.45 762.42 1050.2 762.55 1049.94C765.49 1047.48 768.15 1045 771.81 1042.52C774.16 1040.93 777.24 1039.1 782.03 1037.99C786.13 1037.06 790.07 1036.94 794.09 1036.38C797.92 1035.84 801.08 1035.06 804.46 1033.95C805.17 1033.7 805.83 1033.45 806.42 1033.22C805.8 1033.33 805.12 1033.43 804.37 1033.53Z" /><path id="&lt;Path&gt;" class="shp7" d="M1838.71 1079.09C1832.84 1070.95 1833.32 1064.3 1829.57 1056.59C1825.32 1047.92 1816.1 1045.99 1810.32 1043.97C1811.25 1041.63 1811.22 1039.45 1810.01 1038.03C1808.83 1036.65 1806.75 1036.25 1804.36 1036.73C1803.17 1030.79 1802.99 1020.95 1794.74 1015.21C1787.69 1010.31 1781 1009.74 1773.84 1002.67C1773.3 1002.13 1772.82 1001.63 1772.39 1001.16C1772.66 1001.76 1772.97 1002.42 1773.33 1003.12C1775.07 1006.3 1776.98 1009.01 1779.74 1011.79C1782.64 1014.72 1785.95 1017.08 1788.52 1020.48C1791.48 1024.48 1792.19 1028.35 1792.52 1031.55C1793.05 1036.69 1792.63 1041.23 1792.54 1045.96C1792.34 1046.38 1792.15 1046.8 1791.99 1047.21C1791.82 1047.24 1791.63 1047.29 1791.46 1047.36C1789 1048.26 1786.26 1047.59 1783.81 1047.4C1782.16 1047.72 1782.58 1050.29 1782.69 1051.3C1784.26 1056.63 1787.45 1060.35 1792.49 1062.75C1793.48 1063.01 1795.97 1063.84 1796.55 1062.27C1796.74 1059.82 1796.52 1057.03 1797.8 1054.74C1797.9 1054.59 1797.97 1054.42 1798.03 1054.25C1798.42 1054.17 1798.8 1054.08 1799.18 1053.96C1803.72 1054.58 1808.14 1054.9 1812.99 1056.19C1816.1 1057.02 1819.85 1058.33 1823.34 1061.87C1826.31 1064.92 1828.14 1068.56 1830.58 1071.87C1832.92 1075.02 1835.29 1077.31 1838.19 1079.54C1838.83 1079.99 1839.43 1080.4 1840 1080.76C1839.58 1080.27 1839.16 1079.71 1838.71 1079.09Z" /><path id="&lt;Path&gt;" class="shp7" d="M1612.09 1303.4C1602.81 1306.73 1596.68 1304.47 1588.4 1305.91C1579.07 1307.54 1574.74 1315.7 1571.29 1320.58C1569.32 1319.07 1567.26 1318.51 1565.59 1319.27C1563.98 1320.01 1563.04 1321.84 1562.85 1324.22C1556.92 1323.73 1547.59 1321.23 1539.95 1327.43C1533.42 1332.74 1531.07 1338.87 1522.47 1343.67C1521.82 1344.04 1521.21 1344.36 1520.64 1344.64C1521.29 1344.54 1521.99 1344.43 1522.75 1344.28C1526.23 1343.51 1529.3 1342.45 1532.66 1340.61C1536.22 1338.68 1539.34 1336.2 1543.23 1334.71C1547.82 1333 1551.65 1333.39 1554.75 1333.94C1559.75 1334.83 1563.91 1336.47 1568.35 1337.83C1568.69 1338.14 1569.03 1338.43 1569.38 1338.68C1569.36 1338.86 1569.36 1339.04 1569.37 1339.21C1569.55 1341.79 1568.19 1344.18 1567.33 1346.43C1567.19 1348.07 1569.73 1348.36 1570.72 1348.55C1576.16 1348.5 1580.53 1346.51 1584.16 1342.42C1584.67 1341.56 1586.12 1339.45 1584.81 1338.47C1582.54 1337.64 1579.86 1337.09 1578.06 1335.27C1577.93 1335.13 1577.8 1335.02 1577.65 1334.91C1577.68 1334.53 1577.7 1334.15 1577.68 1333.75C1579.5 1329.65 1581 1325.59 1583.53 1321.38C1585.15 1318.68 1587.39 1315.52 1591.68 1313.18C1595.37 1311.22 1599.29 1310.49 1603.08 1309.08C1606.67 1307.75 1609.48 1306.14 1612.36 1304.02C1612.97 1303.54 1613.51 1303.08 1614 1302.64C1613.43 1302.9 1612.79 1303.15 1612.09 1303.4Z" /><path id="&lt;Path&gt;" class="shp8" d="M3840 3082.44C3798.47 3087.5 3756.31 3092.19 3715.34 3097.13C3643.84 3105.75 3582.19 3117.06 3507.38 3122.44C3326.69 3135.5 3135.97 3146.75 2962.66 3166.69C2922.09 3171.38 2886.06 3178.5 2844.06 3183.06C2757.25 3192.37 2664.25 3195.25 2575.84 3203.19C2546.03 3205.81 2520.75 3209.5 2498.5 3215.94C2443.81 3231.88 2436.56 3263 2479.4 3281.31C2503.28 3291.44 2543.25 3295.19 2581.22 3299.5C2652.91 3304.56 2724.94 3309.25 2797.28 3313.44C2873.88 3317.44 2948.94 3323.13 3022.5 3330.56C3163 3345.81 3293.97 3368.19 3423.59 3389.75C3483.44 3399.69 3543.38 3409.63 3602.41 3419.94C3678.41 3433.25 3756 3441.69 3840 3448.06L3840 3082.44Z" /><path id="&lt;Path&gt;" class="shp9" d="M3785.47 2267C3760.75 2275.13 3737.97 2285.31 3712.66 2292.44C3671.94 2303.88 3628.12 2321.63 3585.34 2326.5C3573.84 2327.81 3562.06 2326.94 3550.6 2328.44C3502.22 2334.94 3485.63 2353.63 3455.25 2382.56C3419.63 2416.5 3376.31 2454.37 3327.06 2475.63C3282.37 2494.87 3235.34 2488.56 3187.31 2489.81C3164.47 2490.44 3164.41 2491.56 3142.81 2502.37C3111.59 2517.94 3078.44 2530.62 3045.72 2543.94C3008.78 2559 2980.87 2558.25 2940.78 2557.94C2890.87 2557.5 2843.16 2569.63 2796.19 2582.19C2743.13 2596.37 2684.84 2597.06 2630.5 2585.56C2583.09 2575.63 2537.34 2556.94 2490.66 2544.81C2436.31 2530.69 2384.75 2515.06 2334.19 2493.69C2305.47 2481.5 2284.87 2464.12 2253.34 2455.56C2225.75 2448.12 2197.22 2442.69 2169.53 2435.38C2147.94 2429.75 2126.5 2425.31 2107.66 2415.31C2100.06 2411.31 2095.81 2405.75 2089.53 2401.75C2078.34 2394.62 2072 2392.94 2057.28 2388.81C2021.56 2379 1989.53 2355.81 1952.94 2353.69C1867.16 2348.81 1771.77 2361.75 1696.17 2394.62C1673.63 2404.44 1649.95 2409 1626.09 2416.31C1594.08 2426.19 1570.83 2441.38 1541.7 2454.87C1498.14 2475.13 1462.89 2476.81 1414.61 2476.5C1378.17 2476.25 1342.72 2474.06 1309.53 2484.12C1270.37 2495.94 1235.61 2509.75 1193.78 2510.5C1134.94 2511.5 1077.66 2493.63 1020.53 2484.5C961.66 2475.06 918.03 2501.06 866.62 2519.13C804.48 2541 740.44 2534.19 674.64 2537.5C642.14 2539.19 599.25 2542.19 569.28 2552.12C543.92 2560.56 518.31 2570.87 496.05 2583.88C485.72 2589.94 474.19 2601.06 461.84 2604.62C435.09 2612.31 396.3 2603.75 369.34 2601.19C326.52 2597.19 287.39 2589.63 246.92 2577.81C231.5 2573.25 225.97 2572.06 210.94 2571.56C179.89 2570.5 142.8 2577.25 112.66 2570.31C90.61 2565.25 84.84 2555.19 70.11 2544.12C56.86 2534.19 28.42 2535.38 11.73 2538.87C7.67 2539.69 3.81 2540.94 0 2542.31L0 3170.56C94.5 3167.94 188.99 3164.69 283.4 3161.13C421.52 3156 560.47 3151.88 698.7 3156.94C805.44 3160.81 912.05 3169.19 1018.58 3175.13C1282.84 3189.75 1546.67 3190.31 1811.44 3190.5C1910 3190.56 2007.4 3190.94 2105.69 3184.06C2291.97 3171.06 2476.81 3156.06 2664.12 3155.38C2772.5 3155 2880.97 3156.19 2989.34 3156.25C3206.5 3156.5 3423.97 3158.87 3641.09 3154.69C3707.47 3153.44 3773.72 3151.81 3840 3150.69L3840 2257.25C3821.59 2259.13 3803.72 2261 3785.47 2267Z" /><path id="&lt;Path&gt;" class="shp10" d="M3701.63 2574.19C3672.44 2579 3646.69 2591.38 3617.28 2595.13C3603.06 2596.94 3590.25 2595.44 3577.28 2596.87C3563.69 2598.37 3552.91 2603 3538.25 2605.75C3507.03 2611.75 3462.19 2613.69 3440.03 2623.31C3430.47 2627.44 3425.63 2627.5 3414.22 2630.81C3409.78 2632.12 3405.34 2635.81 3401.63 2637C3384.56 2642.69 3364.72 2651.13 3347 2654.87C3318.34 2660.94 3279.56 2661.25 3254.78 2666.87C3255.09 2669.56 3255.44 2672.19 3255.81 2674.87C3230.5 2677.06 3205.03 2678.81 3183.16 2682.56C3170.47 2684.75 3160.69 2688.62 3148.31 2689.94C3141.28 2690.69 3133.25 2689.13 3124.6 2689.56C3117.66 2689.88 3109.47 2692 3102.94 2692.37C3102.19 2692.37 3101.4 2692.44 3100.66 2692.5C3088.47 2691.31 3076.34 2690.37 3063.94 2690.19C3033.47 2689.88 3002.81 2691.5 2971.81 2694.19C2969.78 2693.94 2967.78 2693.63 2965.78 2693.25C2964.41 2694 2962.91 2694.62 2961.38 2695.19C2945.69 2696.69 2929.84 2698.44 2913.94 2700.44C2910.75 2700.69 2907.75 2701.06 2904.97 2701.56C2883.81 2704.25 2862.47 2707.19 2840.81 2710.25C2836.06 2710.62 2831.34 2711 2826.56 2711.63C2793 2715.69 2762.5 2719.06 2726.09 2719.44C2725.53 2719.44 2719.72 2717.5 2714.69 2717.69C2710.47 2717.88 2708.62 2718.94 2702.37 2719.06C2676.44 2719.56 2646.69 2717.88 2618.97 2719.25C2601.66 2720.12 2585.94 2724.56 2569.75 2724.81C2546.25 2725.19 2525.06 2719.38 2502.53 2720.5C2486.6 2721.31 2467.63 2725.38 2449.47 2729.13C2432.47 2732.69 2413.44 2739.38 2398.87 2739.44C2387.38 2739.5 2381.34 2735.19 2376.53 2734.31C2373.09 2733.63 2368.22 2734.69 2364.69 2734.06C2358.34 2733.06 2355.06 2731.38 2347.81 2730.62C2322.91 2728.19 2301 2730.12 2273.75 2729.44C2236.84 2728.44 2201.59 2726.75 2168 2724.5C2148.84 2723.19 2129.59 2723.63 2112.16 2721.94C2107.47 2721.5 2103.28 2719.44 2098.25 2718.56C2077.63 2715 2058.31 2714.31 2040.81 2711.25C2033.4 2709.38 2033.25 2709.38 2026.44 2709.44C2019.94 2709.44 2014.31 2710.12 2005.25 2710.69C1974.34 2703.19 1940.5 2708.81 1907.47 2709.06C1903.84 2709.06 1901.84 2707.5 1896.06 2707.25C1880.47 2706.69 1868.47 2709.94 1853.7 2709.75C1830.76 2709.44 1808.52 2703.13 1789.88 2703.88C1782.09 2704.25 1776.58 2706.5 1768.22 2706.69C1752.37 2707.13 1734.87 2705.19 1717.86 2705.88C1701.48 2706.5 1685.58 2710.44 1672.08 2709.88C1651.61 2709.13 1631.44 2699.44 1612.56 2699.38C1604.58 2697.25 1595.39 2698.62 1587.25 2694.19C1543.52 2693.44 1504.99 2686.44 1468.94 2681.13C1432.08 2675.63 1396.81 2670.25 1367.72 2660.37C1353.31 2660.37 1350.86 2655.06 1343.31 2652C1304.28 2650.69 1282.99 2641.38 1256 2634.69C1240.69 2633.19 1222.61 2626.62 1214.27 2624.5C1189.06 2617.94 1143.53 2619.5 1108.95 2617.94C1081.7 2616.69 1056.47 2617.56 1034.91 2616.69C1026.55 2620.06 1007.98 2616.75 1000.97 2620.94C957.63 2617.94 923.55 2621.88 878.58 2622.06C864.99 2625.06 847.52 2625.63 832.33 2627.63C826.69 2628.31 821.4 2629.31 816.17 2630.31C787.78 2632.5 759.13 2634.31 730.36 2635.75C712.62 2635.38 694.91 2635 678.06 2636.19C671.5 2636.62 665.45 2637.44 659.52 2638.44C561.52 2641.13 463.14 2639 369.47 2630.12C364.83 2629.38 360.3 2628.56 356.02 2627.69C353.52 2627.75 351.03 2627.88 348.52 2628.06C291.69 2622 236.7 2613.44 184.8 2601.88C147.17 2608.37 111.13 2615.56 83.63 2626.25C58.12 2624.44 32.76 2622.56 0 2625.63L0 3379.25C311.06 3348.87 622.11 3318.44 933.17 3288.06C930.76 3265.88 928.36 3243.69 925.97 3221.56C1233.45 3226.62 1540.95 3231.75 1848.42 3236.87C1861.38 3336.75 1874.34 3436.56 1887.28 3536.44C2374.22 3485.94 2861.03 3435.38 3347.91 3384.87C3353.19 3425.44 3358.44 3465.94 3363.69 3506.5C3522.47 3490 3681.22 3473.56 3840 3457.06L3840 2577.56C3793.91 2576.44 3742.56 2580.12 3701.63 2574.19Z" /><g id="&lt;Group&gt;"><path id="&lt;Path&gt;" class="shp11" d="M3717.03 2669.13C3707.13 2658.56 3674.06 2665.94 3661.5 2657.38C3624.5 2658.62 3582.12 2655.5 3535.28 2657.38C3475.84 2659.88 3399.44 2654.19 3353.5 2669.13C3338.31 2674.06 3304.47 2689.5 3277.78 2692.56C3228.75 2707.94 3188.12 2729.88 3121.28 2731.56C3107 2738.75 3100.25 2751.75 3075.84 2751.06C3021.69 2774.19 2959.28 2786 2894.06 2797.94C2830.37 2809.56 2761.63 2825.19 2687.06 2825.25C2671.13 2835.81 2656.19 2832 2641.63 2836.94C2609.59 2836.37 2570.69 2859.25 2535.63 2860.37C2512.44 2861.06 2487.34 2850.87 2459.88 2848.62C2431.34 2846.31 2400.75 2850.25 2374.03 2848.62C2359.97 2847.81 2351.75 2841.94 2338.72 2840.87C2307.47 2838.19 2266.69 2852.75 2227.66 2852.56C2202.5 2852.44 2183.69 2843.88 2156.94 2844.75C2147.06 2845.06 2142.91 2848.87 2136.75 2848.62C2080.84 2846.75 2026.16 2831.56 1970.16 2848.62C1955.03 2847 1945.81 2845.06 1934.81 2844.75C1923.25 2844.44 1923 2844.37 1909.56 2848.62C1878.37 2855.44 1845.27 2856.31 1808.6 2864.25C1799.61 2866.19 1791.52 2871.19 1783.34 2872.06C1752.95 2875.5 1720.5 2873.63 1687.42 2875.94C1629.34 2880.12 1568.75 2882.81 1505.66 2883.75C1459.06 2884.5 1422.86 2878.75 1379.44 2883.75C1366.8 2885.25 1360.39 2889.31 1349.16 2891.56C1342.89 2892.87 1335.13 2890.12 1328.95 2891.56C1320.37 2893.63 1308.09 2903.88 1288.56 2903.31C1263.94 2902.56 1234.87 2885.31 1207.78 2875.94C1178.81 2865.94 1148.61 2855.19 1121.95 2852.56C1084.28 2848.81 1045.55 2862.25 1005.83 2860.37C978.53 2859.06 954.03 2847.63 925.05 2844.75C878.72 2840.19 827.48 2843.19 783.69 2840.87C773.17 2840.25 770.58 2837.5 763.48 2836.94C755.06 2836.31 744.23 2840.87 743.3 2840.87C681.72 2838.44 631.64 2828.75 576.69 2817.44C535.77 2809 494.08 2809.69 455.52 2797.94C453.11 2797.19 452.36 2790.75 450.47 2790.12C422.8 2780.44 373.22 2788.81 349.48 2766.69C297.98 2778 244 2770.75 192.97 2766.69C168.95 2764.75 142.31 2761.56 117.24 2758.87C106.39 2757.69 93.48 2752.19 81.91 2751.06C67.4 2749.69 53.08 2753.19 41.52 2751.06C26.14 2748.25 13.88 2741.94 0 2736.5L0 3618.31L3840 3618.31L3840 2671.63C3800.19 2668.44 3762.03 2665.75 3717.03 2669.13Z" /></g><g id="&lt;Group&gt;"><path id="&lt;Path&gt;" class="shp12" d="M3831.5 3084C3820.03 3086 3795.91 3079.56 3792.47 3077.06C3789 3074.56 3766.06 3069.13 3753.4 3070.06C3740.78 3071.06 3731.59 3067.63 3712.06 3065.63C3692.56 3063.63 3679.91 3054.19 3675.31 3050.19C3670.72 3046.25 3620.19 3045.25 3599.53 3044.25C3578.84 3043.25 3544.37 3016.44 3516.81 3015.44C3501.47 3014.87 3449.03 3002.87 3397.66 2992.44L3397.66 2792.5C3397.66 2780.31 3393.34 2769.19 3386.19 2760.37L3386.19 2583.25C3386.19 2570.06 3374.03 2559.38 3359.06 2559.38L3304.16 2559.38C3304 2547.75 3301.94 2535 3296.25 2522.06C3289.97 2507.88 3277.31 2494.25 3262.87 2482.5C3248.91 2471 3233.34 2461.13 3220.62 2453.94C3221.25 2452.06 3221.78 2449.5 3221.97 2446.69C3222.12 2443.31 3221.72 2439.56 3220.06 2435.69L3219.97 2435.63C3218.28 2431.63 3214.62 2428 3210.56 2424.87C3206.84 2422 3202.84 2419.63 3199.84 2417.94L3199.59 2411.31C3200.34 2410.69 3201 2409.88 3201.56 2408.87C3202.09 2407.81 3202.47 2406.62 3202.47 2405.38C3202.47 2404 3202.09 2402.62 3201.34 2401.63C3200.81 2400.56 3199.97 2399.69 3198.94 2399.13L3198.78 2393.38C3199.38 2392.87 3199.88 2392.25 3200.22 2391.56C3200.69 2390.75 3200.94 2389.75 3200.94 2388.69C3200.94 2387.56 3200.66 2386.56 3200.16 2385.63C3199.66 2384.81 3199.06 2384.19 3198.31 2383.69L3198.06 2377.56L3195.97 2331.19C3195.97 2330.56 3195.5 2330.12 3194.87 2330.12C3194.37 2330.12 3193.88 2330.56 3193.78 2331.19L3191.75 2377.56L3191.47 2383.69C3190.75 2384.19 3190.12 2384.81 3189.66 2385.63C3189.16 2386.56 3188.75 2387.56 3188.75 2388.69C3188.75 2389.75 3189.03 2390.75 3189.5 2391.56C3189.91 2392.25 3190.41 2392.87 3191.03 2393.38L3190.75 2399.13C3189.75 2399.69 3189 2400.56 3188.37 2401.63C3187.72 2402.62 3187.38 2404 3187.38 2405.38C3187.38 2406.62 3187.66 2407.81 3188.28 2408.94C3188.72 2409.88 3189.4 2410.69 3190.25 2411.31L3189.91 2417.94C3186.94 2419.63 3182.97 2422 3179.25 2424.87C3175.22 2428 3171.53 2431.63 3169.78 2435.63C3168.03 2439.5 3167.63 2443.31 3167.81 2446.69C3168 2449.5 3168.5 2452.06 3169.09 2453.94C3156.37 2461.13 3140.81 2471 3126.94 2482.5C3112.53 2494.25 3099.91 2507.88 3093.59 2522.06C3087.91 2535 3085.84 2547.75 3085.66 2559.38L3067.4 2559.38L3067.4 2494.87C3067.53 2494.81 3067.63 2494.69 3067.72 2494.56C3068.94 2492.62 3096.56 2447.13 3071.44 2400.44C3063.13 2385.19 3046.53 2370.56 3027.56 2357.94C3009.34 2345.56 2988.87 2334.94 2972.16 2327.19C2972.94 2325.19 2973.59 2322.44 2973.81 2319.44C2974.09 2315.81 2973.56 2311.69 2971.25 2307.56C2968.97 2303.25 2964.12 2299.31 2958.84 2295.94C2953.94 2292.94 2948.69 2290.31 2944.78 2288.56L2944.34 2281.44C2945.47 2280.75 2946.34 2279.88 2946.97 2278.87C2947.75 2277.69 2948.16 2276.44 2948.16 2275C2948.16 2273.56 2947.69 2272.06 2946.78 2271C2946 2269.88 2945.03 2268.94 2943.69 2268.31L2943.34 2262.19C2944.12 2261.63 2944.78 2260.94 2945.34 2260.19C2945.97 2259.31 2946.31 2258.25 2946.31 2257.13C2946.31 2255.88 2945.81 2254.81 2945.13 2253.88C2944.5 2252.94 2943.69 2252.25 2942.72 2251.75L2942.41 2245.19L2939.72 2195.31C2939.59 2194.69 2938.94 2194.19 2938.25 2194.19C2937.44 2194.19 2936.81 2194.69 2936.81 2195.31L2934.09 2245.19L2933.75 2251.75C2932.75 2252.25 2931.97 2252.94 2931.34 2253.88C2930.69 2254.81 2930.31 2255.88 2930.31 2257.13C2930.31 2258.25 2930.62 2259.31 2931.25 2260.19C2931.69 2260.94 2932.37 2261.63 2933.16 2262.19L2932.91 2268.31C2931.59 2268.94 2930.47 2269.88 2929.75 2271C2928.78 2272.06 2928.28 2273.56 2928.28 2275C2928.28 2276.44 2928.78 2277.69 2929.47 2278.81C2930.25 2279.88 2931.09 2280.75 2932.09 2281.44L2931.75 2288.56C2927.78 2290.31 2922.56 2292.94 2917.63 2295.94C2912.31 2299.31 2907.5 2303.25 2905.28 2307.56L2905.16 2307.63C2903 2311.81 2902.47 2315.81 2902.66 2319.44C2902.91 2322.44 2903.59 2325.19 2904.44 2327.19C2887.72 2334.94 2867.25 2345.56 2848.84 2357.94C2829.91 2370.56 2813.25 2385.19 2805 2400.44C2779.34 2448.06 2808.78 2494.5 2808.84 2494.56C2808.87 2494.69 2808.97 2494.75 2809.06 2494.81L2809.06 2559.38L2753.16 2559.38L2753.16 2526.06L2726.75 2526.06C2747.13 2507.38 2759.16 2482.87 2759.16 2456.19C2759.16 2403.88 2712.5 2360.44 2651.16 2351.25C2647.88 2347.63 2645 2344.5 2641.75 2342.56L2641.75 2330.87C2641.75 2327.5 2639.78 2324.5 2636.87 2322.5L2629.4 2264.06C2629.13 2262.06 2629.13 2261.88 2628.78 2263.81C2626.5 2283.56 2623.94 2303 2621.31 2322.5C2618.41 2324.5 2616.44 2327.5 2616.44 2330.87L2616.44 2342.56C2613.88 2344.5 2611.28 2347 2608.72 2350.69C2544.44 2357.94 2494.81 2402.19 2494.81 2456.19C2494.81 2482.87 2507.13 2507.38 2527.59 2526.06L2503.03 2526.06L2503.03 2559.38L2443.13 2559.38L2440.44 2354C2445.22 2352.12 2450.28 2347.19 2452.94 2341.38C2456.16 2334.44 2457.72 2330.94 2460.94 2324C2464.34 2316.56 2460.25 2310.56 2451.84 2310.56L2439.88 2310.56L2437.22 2107.94L2437.31 2107.94L2437.38 2100.81L2437.16 2100.81L2437.09 2094.62C2440.16 2092.31 2443.13 2088.44 2444.97 2084L2445.88 2084L2445.88 2081.63C2448.12 2075.81 2449.44 2072.31 2451.88 2066C2454.72 2058.56 2451.31 2052.56 2444.28 2052.56L2436.53 2052.56L2435.03 1938.08L2435.03 1933.98L2434.97 1933.98L2434.72 1913.52L2434.72 1910.42L2434.66 1910.42L2433.75 1838.84L2434.25 1838.84L2434.25 1837.8L2434.72 1837.8L2434.72 1836.75L2435.69 1836.75L2435.69 1834.81L2434.72 1834.81L2434.72 1833.77L2434.28 1833.77L2434.28 1832.84L2433.63 1832.84L2433.53 1823.08C2436.25 1820.66 2438.84 1816.64 2440.37 1812.09C2442.72 1805.13 2443.88 1801.64 2446.22 1794.67C2448.72 1787.25 2445.72 1781.25 2439.56 1781.25L2432.44 1781.25L2432.72 1716.45L2441.66 1716.45L2441.66 1715.55L2441.88 1715.55L2441.88 1715.09L2442.09 1715.09L2442.16 1713.55L2441.94 1713.55L2441.94 1713.13L2441.72 1713.13L2441.72 1712.09L2432.84 1712.09C2433.34 1706.66 2433.69 1696.78 2430.6 1690.97C2426.56 1683.48 2418.91 1678.48 2412.47 1672.39C2414.34 1671.36 2415.66 1669.39 2415.72 1667.06C2415.72 1663.67 2413.06 1661.05 2409.88 1660.87C2412.62 1660.83 2414.97 1658.47 2414.97 1655.58C2415.03 1652.67 2412.72 1650.34 2409.88 1650.28C2411.75 1650.17 2413.34 1648.66 2413.34 1646.69C2413.34 1644.7 2411.88 1643 2409.81 1643C2407.78 1643 2406.22 1644.7 2406.22 1646.69C2406.22 1648.66 2407.75 1650.17 2409.66 1650.28C2406.81 1650.34 2404.37 1652.67 2404.37 1655.58C2404.31 1658.47 2406.62 1660.83 2409.47 1660.87C2406.22 1661.05 2403.53 1663.67 2403.47 1667.06C2403.47 1669.28 2404.62 1671.19 2406.37 1672.27C2399.84 1678.41 2392 1683.44 2387.94 1690.97C2384.75 1696.78 2384.97 1706.66 2385.4 1712.09L2376.53 1712.09L2376.53 1713.13L2376.37 1713.13L2376.37 1713.55L2376.12 1713.55L2376.12 1715.09L2376.34 1715.09L2376.34 1715.55L2376.53 1715.55L2376.53 1716.45L2385.44 1716.45L2385.13 1781.25L2372.78 1781.25C2366.62 1781.25 2363.66 1787.25 2366.12 1794.67C2368.47 1801.64 2369.63 1805.13 2371.97 1812.09C2374.47 1819.5 2379.81 1825.52 2383.91 1825.52L2383.97 1825.52L2383.81 1832.84L2383.22 1832.84L2383.22 1833.77L2382.69 1833.77L2382.69 1834.81L2381.72 1834.81L2381.72 1836.75L2382.69 1836.75L2382.69 1837.8L2383.16 1837.8L2383.09 1838.84L2383.63 1838.84L2381.94 1910.42L2381.81 1914.64L2381.88 1914.64L2381.38 1933.98L2381.28 1938.08L2378.62 2052.56L2368.06 2052.56C2361.03 2052.56 2357.63 2058.56 2360.47 2066C2363.13 2072.94 2364.47 2076.44 2367.13 2083.38C2369.34 2089.19 2373.59 2094.12 2377.56 2096L2377.44 2100.81L2377.22 2100.81L2377.22 2107.94L2377.28 2107.94L2372.47 2310.56L2360.5 2310.56C2352.09 2310.56 2348.03 2316.56 2351.44 2324C2354.62 2330.94 2356.22 2334.44 2359.4 2341.38C2362 2347 2366.81 2351.81 2371.47 2353.81L2366.6 2559.38L2332.56 2559.38L2329.28 2305.06C2333 2303.63 2337 2299.75 2339.09 2295.19C2341.59 2289.69 2342.84 2286.94 2345.38 2281.5C2348.03 2275.63 2344.84 2270.94 2338.22 2270.94L2328.84 2270.94L2326.75 2111.75L2326.81 2111.75L2326.87 2106.12L2326.69 2106.12L2326.62 2101.31C2329.06 2099.5 2331.38 2096.44 2332.81 2092.94L2333.53 2092.94L2333.53 2091.13C2335.31 2086.5 2336.34 2083.75 2338.25 2078.81C2340.47 2072.94 2337.81 2068.25 2332.28 2068.25L2326.19 2068.25L2325 1978.31L2325 1975.06L2324.97 1975.06L2324.78 1959L2324.78 1956.56L2324.75 1956.56L2324.03 1900.33L2324.41 1900.33L2324.41 1899.52L2324.78 1899.52L2324.78 1898.7L2325.53 1898.7L2325.53 1897.17L2324.78 1897.17L2324.78 1896.36L2324.44 1896.36L2324.44 1895.61L2323.91 1895.61L2323.81 1887.95C2325.97 1886.03 2328.03 1882.89 2329.22 1879.31C2331.06 1873.83 2331.97 1871.09 2333.81 1865.63C2335.75 1859.8 2333.44 1855.08 2328.6 1855.08L2323 1855.08L2323.22 1804.17L2330.22 1804.17L2330.22 1803.47L2330.37 1803.47L2330.37 1803.11L2330.56 1803.11L2330.6 1801.89L2330.44 1801.89L2330.44 1801.56L2330.25 1801.56L2330.25 1800.75L2323.28 1800.75C2323.69 1796.48 2323.97 1788.73 2321.53 1784.16C2318.37 1778.28 2312.34 1774.34 2307.28 1769.56C2308.75 1768.75 2309.78 1767.2 2309.84 1765.38C2309.84 1762.72 2307.75 1760.66 2305.25 1760.52C2307.4 1760.47 2309.25 1758.62 2309.25 1756.34C2309.28 1754.06 2307.47 1752.23 2305.25 1752.19C2306.72 1752.11 2307.97 1750.91 2307.97 1749.36C2307.97 1747.81 2306.81 1746.47 2305.22 1746.47C2303.59 1746.47 2302.37 1747.81 2302.37 1749.36C2302.37 1750.91 2303.59 1752.11 2305.06 1752.19C2302.84 1752.23 2300.94 1754.06 2300.94 1756.34C2300.87 1758.62 2302.69 1760.47 2304.94 1760.52C2302.37 1760.66 2300.28 1762.72 2300.22 1765.38C2300.22 1767.13 2301.13 1768.62 2302.5 1769.45C2297.38 1774.28 2291.22 1778.25 2288 1784.16C2285.5 1788.73 2285.69 1796.48 2286.03 1800.75L2279.06 1800.75L2279.06 1801.56L2278.94 1801.56L2278.94 1801.89L2278.72 1801.89L2278.72 1803.11L2278.91 1803.11L2278.91 1803.47L2279.06 1803.47L2279.06 1804.17L2286.06 1804.17L2285.81 1855.08L2276.09 1855.08C2271.28 1855.08 2268.94 1859.8 2270.87 1865.63C2272.72 1871.09 2273.63 1873.83 2275.47 1879.31C2277.4 1885.14 2281.63 1889.86 2284.84 1889.86L2284.91 1889.86L2284.78 1895.61L2284.31 1895.61L2284.31 1896.36L2283.88 1896.36L2283.88 1897.17L2283.13 1897.17L2283.13 1898.7L2283.88 1898.7L2283.88 1899.52L2284.25 1899.52L2284.22 1900.33L2284.62 1900.33L2283.28 1956.56L2283.19 1959.88L2283.25 1959.88L2282.87 1975.06L2282.78 1978.31L2280.69 2068.25L2272.41 2068.25C2266.87 2068.25 2264.22 2072.94 2266.44 2078.81C2268.53 2084.25 2269.56 2087 2271.69 2092.44C2273.44 2097.06 2276.75 2100.94 2279.88 2102.37L2279.78 2106.12L2279.59 2106.12L2279.59 2111.75L2279.66 2111.75L2275.88 2270.94L2266.47 2270.94C2259.84 2270.94 2256.66 2275.63 2259.34 2281.5C2261.84 2286.94 2263.09 2289.69 2265.59 2295.19C2267.63 2299.56 2271.44 2303.38 2275.09 2304.94L2272.97 2394.25L2258.37 2394.25L2258.37 2320.62L2216 2320.62L2216 2247.38L2194.03 2247.38C2193.66 2167.19 2185.09 2151.56 2102.81 2096C2024.09 2042.81 1980.81 1992.25 1957.34 1949.3L1963.38 1949.3L1963.38 1938.58L1957.4 1938.58L1957.4 1935.52L1951.56 1935.52L1951.56 1926.17C1958.41 1924.42 1963.38 1919.2 1963.38 1913.05C1963.38 1906.86 1958.41 1901.64 1951.56 1899.86L1951.56 1894.52C1955.16 1893.01 1957.69 1889.92 1957.69 1886.36C1957.69 1882.78 1955.16 1879.69 1951.56 1878.17L1951.56 1864.64C1953.47 1864.91 1955.44 1865.06 1957.47 1865.06C1970.41 1865.06 1981.59 1859.11 1987.25 1850.37C1981.31 1854.76 1973.4 1857.45 1964.72 1857.45C1946.12 1857.45 1931.06 1845.13 1931.06 1829.94C1931.06 1825.3 1932.5 1820.92 1935 1817.09C1928.12 1822.11 1923.84 1829.4 1923.84 1837.52C1923.84 1848.02 1931 1857.13 1941.53 1861.78L1941.53 1878.17C1937.88 1879.69 1935.4 1882.78 1935.4 1886.36C1935.4 1889.92 1937.88 1893.01 1941.53 1894.52L1941.53 1899.86C1934.69 1901.64 1929.72 1906.86 1929.72 1913.05C1929.72 1919.2 1934.69 1924.42 1941.53 1926.17L1941.53 1934.52L1941.06 1935.52L1935.63 1935.52L1935.63 1938.58L1929.66 1938.58L1929.66 1949.3L1934.06 1949.3C1910.6 1992.25 1867.31 2042.81 1788.61 2096C1706.33 2151.56 1697.72 2167.19 1697.39 2247.38L1675.4 2247.38L1675.4 2320.62L1633 2320.62L1633 2394.25L1623.39 2394.25L1622.23 2305.06C1626 2303.63 1629.97 2299.75 1632.08 2295.19C1634.58 2289.69 1635.83 2286.94 1638.34 2281.5C1641.01 2275.63 1637.81 2270.94 1631.2 2270.94L1621.81 2270.94L1619.72 2111.75L1619.8 2111.75L1619.83 2106.12L1619.67 2106.12L1619.61 2101.31C1622.03 2099.5 1624.34 2096.44 1625.78 2092.94L1626.52 2092.94L1626.52 2091.13C1628.28 2086.5 1629.31 2083.75 1631.24 2078.81C1633.45 2072.94 1630.78 2068.25 1625.27 2068.25L1619.16 2068.25L1617.98 1978.31L1617.98 1975.06L1617.95 1975.06L1617.75 1959L1617.75 1956.56L1617.72 1956.56L1617 1900.33L1617.38 1900.33L1617.38 1899.52L1617.75 1899.52L1617.75 1898.7L1618.5 1898.7L1618.5 1897.17L1617.75 1897.17L1617.75 1896.36L1617.4 1896.36L1617.4 1895.61L1616.89 1895.61L1616.8 1887.95C1618.95 1886.03 1621 1882.89 1622.2 1879.31C1624.03 1873.83 1624.95 1871.09 1626.78 1865.63C1628.73 1859.8 1626.41 1855.08 1621.56 1855.08L1615.97 1855.08L1616.17 1804.17L1623.2 1804.17L1623.2 1803.47L1623.36 1803.47L1623.36 1803.11L1623.53 1803.11L1623.58 1801.89L1623.4 1801.89L1623.4 1801.56L1623.24 1801.56L1623.24 1800.75L1616.27 1800.75C1616.66 1796.48 1616.94 1788.73 1614.5 1784.16C1611.34 1778.28 1605.31 1774.34 1600.27 1769.56C1601.73 1768.75 1602.76 1767.2 1602.81 1765.38C1602.81 1762.72 1600.73 1760.66 1598.22 1760.52C1600.39 1760.47 1602.22 1758.62 1602.22 1756.34C1602.27 1754.06 1600.45 1752.23 1598.22 1752.19C1599.7 1752.11 1600.94 1750.91 1600.94 1749.36C1600.94 1747.81 1599.8 1746.47 1598.19 1746.47C1596.58 1746.47 1595.34 1747.81 1595.34 1749.36C1595.34 1750.91 1596.56 1752.11 1598.05 1752.19C1595.81 1752.23 1593.92 1754.06 1593.92 1756.34C1593.86 1758.62 1595.67 1760.47 1597.91 1760.52C1595.34 1760.66 1593.25 1762.72 1593.19 1765.38C1593.19 1767.13 1594.11 1768.62 1595.45 1769.45C1590.36 1774.28 1584.2 1778.25 1580.97 1784.16C1578.5 1788.73 1578.67 1796.48 1579 1800.75L1572.03 1800.75L1572.03 1801.56L1571.92 1801.56L1571.92 1801.89L1571.7 1801.89L1571.7 1803.11L1571.88 1803.11L1571.88 1803.47L1572.03 1803.47L1572.03 1804.17L1579.03 1804.17L1578.78 1855.08L1569.08 1855.08C1564.23 1855.08 1561.91 1859.8 1563.86 1865.63C1565.7 1871.09 1566.61 1873.83 1568.45 1879.31C1570.41 1885.14 1574.61 1889.86 1577.83 1889.86L1577.88 1889.86L1577.75 1895.61L1577.28 1895.61L1577.28 1896.36L1576.86 1896.36L1576.86 1897.17L1576.11 1897.17L1576.11 1898.7L1576.86 1898.7L1576.86 1899.52L1577.24 1899.52L1577.2 1900.33L1577.61 1900.33L1576.28 1956.56L1576.17 1959.88L1576.23 1959.88L1575.84 1975.06L1575.78 1978.31L1573.67 2068.25L1565.38 2068.25C1559.86 2068.25 1557.19 2072.94 1559.4 2078.81C1561.52 2084.25 1562.55 2087 1564.66 2092.44C1566.39 2097.06 1569.72 2100.94 1572.84 2102.37L1572.75 2106.12L1572.56 2106.12L1572.56 2111.75L1572.62 2111.75L1568.84 2270.94L1559.45 2270.94C1552.83 2270.94 1549.63 2275.63 1552.3 2281.5C1554.81 2286.94 1556.06 2289.69 1558.58 2295.19C1560.61 2299.56 1564.41 2303.38 1568.05 2304.94L1562.05 2559.38L1517.86 2559.38L1517.86 2403.19C1517.97 2403.06 1518.08 2402.94 1518.16 2402.81C1519.38 2400.87 1547.01 2355.44 1521.89 2308.75C1513.59 2293.5 1496.99 2278.87 1478.03 2266.25C1459.8 2253.88 1439.36 2243.25 1422.62 2235.5C1423.42 2233.5 1424.08 2230.75 1424.3 2227.75C1424.58 2224.12 1424.02 2220 1421.73 2215.88C1419.45 2211.56 1414.61 2207.63 1409.3 2204.31C1404.41 2201.25 1399.17 2198.62 1395.28 2196.87L1394.83 2189.75C1395.94 2189.06 1396.83 2188.19 1397.44 2187.19C1398.23 2186 1398.62 2184.75 1398.62 2183.31C1398.62 2181.88 1398.17 2180.44 1397.27 2179.31C1396.48 2178.25 1395.5 2177.25 1394.16 2176.69L1393.81 2170.5C1394.61 2169.94 1395.28 2169.25 1395.83 2168.56C1396.45 2167.63 1396.78 2166.56 1396.78 2165.44C1396.78 2164.19 1396.28 2163.13 1395.59 2162.19C1395 2161.25 1394.16 2160.56 1393.22 2160.06L1392.87 2153.5L1390.2 2103.69C1390.08 2103 1389.42 2102.5 1388.73 2102.5C1387.91 2102.5 1387.31 2103 1387.31 2103.69L1384.55 2153.5L1384.23 2160.06C1383.24 2160.56 1382.45 2161.25 1381.83 2162.19C1381.17 2163.13 1380.8 2164.19 1380.8 2165.44C1380.8 2166.56 1381.11 2167.63 1381.73 2168.56C1382.17 2169.25 1382.84 2169.94 1383.63 2170.5L1383.4 2176.69C1382.06 2177.25 1380.95 2178.25 1380.23 2179.31C1379.28 2180.44 1378.78 2181.88 1378.78 2183.31C1378.78 2184.75 1379.28 2186 1379.95 2187.13C1380.73 2188.19 1381.56 2189.06 1382.56 2189.75L1382.23 2196.87C1378.27 2198.62 1373.05 2201.25 1368.12 2204.31C1362.78 2207.63 1357.98 2211.56 1355.77 2215.88L1355.66 2215.94C1353.47 2220.12 1352.97 2224.12 1353.14 2227.75C1353.4 2230.75 1354.09 2233.5 1354.92 2235.5C1338.2 2243.25 1317.75 2253.88 1299.36 2266.25C1280.42 2278.87 1263.75 2293.5 1255.5 2308.75C1229.86 2356.37 1259.3 2402.75 1259.34 2402.87C1259.4 2402.94 1259.48 2403 1259.56 2403.06L1259.56 2559.38L1215.8 2559.38L1215.8 2495.25C1215.89 2495.13 1215.97 2495.06 1216.03 2494.94C1216.99 2493.5 1238.2 2458.56 1218.91 2422.69C1212.53 2410.94 1199.77 2399.75 1185.2 2390C1171.2 2380.5 1155.5 2372.37 1142.66 2366.44C1143.25 2364.87 1143.77 2362.75 1143.94 2360.5C1144.14 2357.69 1143.72 2354.5 1141.97 2351.38C1140.2 2348.06 1136.48 2345 1132.42 2342.44C1128.66 2340.12 1124.62 2338.12 1121.63 2336.75L1121.3 2331.31C1122.16 2330.75 1122.83 2330.06 1123.3 2329.31C1123.91 2328.37 1124.2 2327.44 1124.2 2326.31C1124.2 2325.19 1123.86 2324.12 1123.17 2323.25C1122.56 2322.44 1121.81 2321.69 1120.78 2321.25L1120.52 2316.5C1121.13 2316.06 1121.63 2315.56 1122.06 2315C1122.53 2314.31 1122.8 2313.5 1122.8 2312.62C1122.8 2311.69 1122.41 2310.81 1121.89 2310.06C1121.42 2309.38 1120.78 2308.87 1120.05 2308.5L1119.78 2303.44L1117.73 2265.19C1117.64 2264.62 1117.14 2264.25 1116.61 2264.25C1115.97 2264.25 1115.52 2264.62 1115.52 2265.19L1113.4 2303.44L1113.16 2308.5C1112.37 2308.87 1111.78 2309.38 1111.31 2310.06C1110.81 2310.81 1110.5 2311.69 1110.5 2312.62C1110.5 2313.5 1110.75 2314.31 1111.24 2315C1111.58 2315.56 1112.09 2316.06 1112.69 2316.5L1112.52 2321.25C1111.48 2321.69 1110.62 2322.44 1110.08 2323.25C1109.34 2324.12 1108.95 2325.19 1108.95 2326.31C1108.95 2327.44 1109.34 2328.37 1109.86 2329.25C1110.47 2330.06 1111.11 2330.75 1111.88 2331.31L1111.63 2336.75C1108.58 2338.12 1104.55 2340.12 1100.78 2342.44C1096.67 2345 1092.99 2348.06 1091.28 2351.38L1091.19 2351.38C1089.52 2354.62 1089.13 2357.69 1089.27 2360.5C1089.48 2362.75 1090 2364.87 1090.64 2366.44C1077.8 2372.37 1062.08 2380.5 1047.94 2390C1033.4 2399.75 1020.6 2410.94 1014.25 2422.69C994.56 2459.25 1017.17 2494.87 1017.2 2495C1017.27 2495.06 1017.31 2495.13 1017.38 2495.19L1017.38 2559.38L931.4 2559.38L927.34 2247.5C932.3 2245.56 937.53 2240.5 940.3 2234.44C943.61 2227.25 945.27 2223.63 948.58 2216.37C952.09 2208.75 947.88 2202.5 939.16 2202.5L926.76 2202.5L924.03 1992.62L924.12 1992.62L924.17 1985.25L923.95 1985.25L923.88 1978.81C927.06 1976.44 930.14 1972.44 932.03 1967.88L932.99 1967.88L932.99 1965.38C935.3 1959.31 936.67 1955.75 939.2 1949.17C942.14 1941.48 938.62 1935.27 931.34 1935.27L923.3 1935.27L921.73 1816.69L921.73 1812.42L921.69 1812.42L921.42 1791.24L921.42 1788.03L921.38 1788.03L920.42 1713.89L920.94 1713.89L920.94 1712.81L921.42 1712.81L921.42 1711.72L922.42 1711.72L922.42 1709.72L921.42 1709.72L921.42 1708.62L920.99 1708.62L920.99 1707.67L920.3 1707.67L920.19 1697.56C923.01 1695.05 925.7 1690.89 927.28 1686.17C929.7 1678.95 930.92 1675.34 933.34 1668.12C935.91 1660.45 932.83 1654.22 926.45 1654.22L919.08 1654.22L919.36 1587.11L928.62 1587.11L928.62 1586.17L928.83 1586.17L928.83 1585.7L929.05 1585.7L929.09 1584.09L928.89 1584.09L928.89 1583.67L928.66 1583.67L928.66 1582.6L919.48 1582.6C920 1576.95 920.36 1566.75 917.14 1560.72C912.99 1552.97 905.03 1547.78 898.37 1541.47C900.31 1540.39 901.69 1538.36 901.73 1535.95C901.73 1532.44 898.99 1529.72 895.69 1529.55C898.55 1529.48 900.95 1527.05 900.95 1524.05C901.01 1521.03 898.62 1518.62 895.69 1518.56C897.64 1518.45 899.27 1516.87 899.27 1514.84C899.27 1512.78 897.77 1511.03 895.63 1511.03C893.52 1511.03 891.88 1512.78 891.88 1514.84C891.88 1516.87 893.48 1518.45 895.45 1518.56C892.52 1518.62 890.02 1521.03 890.02 1524.05C889.92 1527.05 892.31 1529.48 895.25 1529.55C891.88 1529.72 889.13 1532.44 889.05 1535.95C889.05 1538.27 890.25 1540.23 892.05 1541.34C885.31 1547.7 877.19 1552.92 872.95 1560.72C869.66 1566.75 869.91 1576.95 870.34 1582.6L861.14 1582.6L861.14 1583.67L861 1583.67L861 1584.09L860.72 1584.09L860.72 1585.7L860.94 1585.7L860.94 1586.17L861.14 1586.17L861.14 1587.11L870.37 1587.11L870.05 1654.22L857.27 1654.22C850.89 1654.22 847.8 1660.45 850.37 1668.12C852.8 1675.34 854 1678.95 856.42 1686.17C859 1693.86 864.55 1700.08 868.8 1700.08L868.86 1700.08L868.69 1707.67L868.06 1707.67L868.06 1708.62L867.52 1708.62L867.52 1709.72L866.52 1709.72L866.52 1711.72L867.52 1711.72L867.52 1712.81L868 1712.81L867.97 1713.89L868.5 1713.89L866.73 1788.03L866.61 1792.39L866.69 1792.39L866.17 1812.42L866.08 1816.69L863.31 1935.27L852.37 1935.27C845.09 1935.27 841.58 1941.48 844.52 1949.17C847.28 1956.37 848.66 1960 851.42 1967.19C853.72 1973.25 858.09 1978.31 862.22 1980.25L862.09 1985.25L861.86 1985.25L861.86 1992.62L861.94 1992.62L856.94 2202.5L844.56 2202.5C835.83 2202.5 831.63 2208.75 835.14 2216.37C838.45 2223.63 840.11 2227.25 843.4 2234.44C846.09 2240.25 851.09 2245.25 855.91 2247.31L848.53 2559.38L748.89 2559.38L748.89 2381.25C749.34 2380 749.81 2378.81 750.25 2377.56C776.05 2309.25 677.58 2254.81 620.89 2207.88C611.44 2200.06 604.48 2190.37 600.78 2184.62C600.39 2168.75 599.88 2156.06 599.31 2147.75C599.55 2147.75 599.77 2147.75 600 2147.75C618.53 2147.75 634.55 2136.94 642.03 2121.25C633.5 2132 620.33 2138.94 605.55 2138.94C603.08 2138.94 600.67 2138.75 598.31 2138.37C598.12 2137.44 597.94 2136.94 597.75 2136.94C597.56 2136.94 597.39 2137.38 597.22 2138.19C575.48 2134.25 559 2115.25 559 2092.44C559 2085.31 560.62 2078.5 563.52 2072.5C557.22 2080.37 553.47 2090.44 553.47 2101.31C553.47 2125.69 572.27 2145.69 596.19 2147.63C595.61 2155.88 595.11 2168.62 594.7 2184.62C591 2190.37 584.05 2200.06 574.6 2207.88C517.92 2254.81 419.44 2309.25 445.22 2377.56C445.69 2378.81 446.14 2380 446.6 2381.25L446.6 2559.38L349.4 2559.38L349.4 2247.19C350.09 2245.38 350.78 2243.56 351.47 2241.75C390.19 2139.13 242.36 2057.5 157.28 1987C143.08 1975.25 132.64 1960.75 127.09 1952.06C126.58 1931.67 125.95 1914.76 125.25 1902.48L119.83 1902.48C119.11 1914.76 118.48 1931.67 117.98 1952.06C112.42 1960.75 101.98 1975.25 87.8 1987C61.97 2008.37 30.41 2030.81 0 2054.56L0 3840L3840 3840L3840 3083.63C3836.72 3083.5 3833.78 3083.63 3831.5 3084Z" /><path id="&lt;Path&gt;" class="shp11" d="M2414.56 1643.42C2419.03 1643.42 2423.13 1641.81 2426.31 1639.06C2426.78 1638.3 2427.31 1637.55 2427.84 1636.67C2424.75 1639.22 2420.81 1640.67 2416.62 1640.67C2406.56 1640.67 2398.56 1632.41 2398.6 1622.2C2398.6 1618.94 2399.5 1615.86 2400.91 1613.11L2400.41 1613.67C2398.03 1616.81 2396.66 1620.67 2396.6 1624.95C2396.47 1635.19 2404.53 1643.42 2414.56 1643.42Z" /><path id="&lt;Path&gt;" class="shp11" d="M902.62 1511.45C907.24 1511.45 911.48 1509.78 914.78 1506.94C915.28 1506.16 915.84 1505.39 916.36 1504.47C913.17 1507.11 909.09 1508.61 904.76 1508.61C894.34 1508.61 886.03 1500.05 886.09 1489.48C886.09 1486.11 887.01 1482.91 888.48 1480.08L887.95 1480.64C885.5 1483.91 884.08 1487.91 884 1492.34C883.86 1502.94 892.23 1511.45 902.62 1511.45Z" /><path id="&lt;Path&gt;" class="shp11" d="M1603.48 1746.8C1606.99 1746.8 1610.2 1745.53 1612.72 1743.38C1613.09 1742.76 1613.52 1742.19 1613.91 1741.5C1611.5 1743.5 1608.39 1744.64 1605.11 1744.64C1597.2 1744.64 1590.89 1738.14 1590.95 1730.12C1590.95 1727.58 1591.66 1725.14 1592.76 1722.99L1592.37 1723.42C1590.5 1725.89 1589.42 1728.94 1589.36 1732.3C1589.27 1740.34 1595.61 1746.8 1603.48 1746.8Z" /><path id="&lt;Path&gt;" class="shp11" d="M2310.5 1746.8C2314 1746.8 2317.22 1745.53 2319.75 1743.38C2320.12 1742.76 2320.53 1742.19 2320.94 1741.5C2318.53 1743.5 2315.4 1744.64 2312.12 1744.64C2304.22 1744.64 2297.94 1738.14 2297.97 1730.12C2297.97 1727.58 2298.69 1725.14 2299.78 1722.99L2299.4 1723.42C2297.53 1725.89 2296.44 1728.94 2296.37 1732.3C2296.28 1740.34 2302.62 1746.8 2310.5 1746.8Z" /></g></g></svg>